<?xml version="1.0" standalone="no"?><svg xmlns="http://www.w3.org/2000/svg" viewBox="0 0 1440 320"><path fill="#e7008a" fill-opacity="0.85" d="M0,64L11.4,90.7C22.9,117,46,171,69,192C91.4,213,114,203,137,202.7C160,203,183,213,206,181.3C228.6,149,251,75,274,37.3C297.1,0,320,0,343,16C365.7,32,389,64,411,101.3C434.3,139,457,181,480,218.7C502.9,256,526,288,549,261.3C571.4,235,594,149,617,101.3C640,53,663,43,686,42.7C708.6,43,731,53,754,90.7C777.1,128,800,192,823,197.3C845.7,203,869,149,891,160C914.3,171,937,245,960,272C982.9,299,1006,277,1029,256C1051.4,235,1074,213,1097,202.7C1120,192,1143,192,1166,176C1188.6,160,1211,128,1234,149.3C1257.1,171,1280,245,1303,250.7C1325.7,256,1349,192,1371,176C1394.3,160,1417,192,1429,208L1440,224L1440,0L1428.6,0C1417.1,0,1394,0,1371,0C1348.6,0,1326,0,1303,0C1280,0,1257,0,1234,0C1211.4,0,1189,0,1166,0C1142.9,0,1120,0,1097,0C1074.3,0,1051,0,1029,0C1005.7,0,983,0,960,0C937.1,0,914,0,891,0C868.6,0,846,0,823,0C800,0,777,0,754,0C731.4,0,709,0,686,0C662.9,0,640,0,617,0C594.3,0,571,0,549,0C525.7,0,503,0,480,0C457.1,0,434,0,411,0C388.6,0,366,0,343,0C320,0,297,0,274,0C251.4,0,229,0,206,0C182.9,0,160,0,137,0C114.3,0,91,0,69,0C45.7,0,23,0,11,0L0,0Z"></path></svg>